<mxfile host="app.diagrams.net" modified="2023-10-04T14:35:02.986Z" agent="Mozilla/5.0 (X11; Linux x86_64) AppleWebKit/537.36 (KHTML, like Gecko) Chrome/117.0.0.0 Safari/537.36 OPR/103.0.0.0" etag="T7EUiALvAvffWoTu_7M0" version="22.0.2" type="device">
  <diagram name="Page-1" id="2a216829-ef6e-dabb-86c1-c78162f3ba2b">
    <mxGraphModel dx="2795" dy="1113" grid="1" gridSize="10" guides="1" tooltips="1" connect="1" arrows="1" fold="1" page="1" pageScale="1" pageWidth="850" pageHeight="1100" background="none" math="0" shadow="0">
      <root>
        <mxCell id="0" />
        <mxCell id="1" parent="0" />
        <mxCell id="QI6UpnfP2ZppFOtznfu5-29" value="" style="rounded=0;whiteSpace=wrap;html=1;fillColor=none;strokeWidth=2;" vertex="1" parent="1">
          <mxGeometry x="170" y="800" width="2380" height="200" as="geometry" />
        </mxCell>
        <mxCell id="QI6UpnfP2ZppFOtznfu5-6" value="" style="rounded=0;whiteSpace=wrap;html=1;fillColor=none;strokeWidth=2;" vertex="1" parent="1">
          <mxGeometry x="170" y="600" width="2380" height="200" as="geometry" />
        </mxCell>
        <mxCell id="QI6UpnfP2ZppFOtznfu5-5" value="" style="rounded=0;whiteSpace=wrap;html=1;fillColor=none;strokeWidth=2;" vertex="1" parent="1">
          <mxGeometry x="170" y="400" width="2380" height="200" as="geometry" />
        </mxCell>
        <mxCell id="QI6UpnfP2ZppFOtznfu5-3" value="" style="rounded=0;whiteSpace=wrap;html=1;fillColor=none;strokeWidth=2;glass=0;" vertex="1" parent="1">
          <mxGeometry x="170" y="200" width="2380" height="200" as="geometry" />
        </mxCell>
        <mxCell id="7a84cebc1def654-1" value="" style="shape=mxgraph.bpmn.shape;html=1;verticalLabelPosition=bottom;labelBackgroundColor=#ffffff;verticalAlign=top;perimeter=ellipsePerimeter;outline=standard;symbol=general;" parent="1" vertex="1">
          <mxGeometry x="178" y="240" width="50" height="50" as="geometry" />
        </mxCell>
        <mxCell id="7a84cebc1def654-2" value="Chegar no Pronto Atendimento" style="shape=ext;rounded=1;html=1;whiteSpace=wrap;" parent="1" vertex="1">
          <mxGeometry x="278" y="225" width="120" height="80" as="geometry" />
        </mxCell>
        <mxCell id="7a84cebc1def654-3" value="Medir pressao &lt;br&gt;e peso" style="shape=ext;rounded=1;html=1;whiteSpace=wrap;" parent="1" vertex="1">
          <mxGeometry x="278" y="425" width="120" height="80" as="geometry" />
        </mxCell>
        <mxCell id="7a84cebc1def654-8" value="Espera por atendimento" style="shape=ext;rounded=1;html=1;whiteSpace=wrap;" parent="1" vertex="1">
          <mxGeometry x="470" y="225" width="120" height="80" as="geometry" />
        </mxCell>
        <mxCell id="7a84cebc1def654-26" value="Atendimento Concluido" style="shape=mxgraph.bpmn.shape;html=1;verticalLabelPosition=bottom;labelBackgroundColor=#ffffff;verticalAlign=top;perimeter=ellipsePerimeter;outline=end;symbol=general;" parent="1" vertex="1">
          <mxGeometry x="2460" y="250.00000000000006" width="50" height="50" as="geometry" />
        </mxCell>
        <mxCell id="QI6UpnfP2ZppFOtznfu5-20" value="" style="edgeStyle=orthogonalEdgeStyle;rounded=0;orthogonalLoop=1;jettySize=auto;html=1;" edge="1" parent="1" source="7a84cebc1def654-29" target="QI6UpnfP2ZppFOtznfu5-19">
          <mxGeometry relative="1" as="geometry" />
        </mxCell>
        <mxCell id="7a84cebc1def654-29" value="Faz o Atendimento" style="html=1;whiteSpace=wrap;rounded=1;" parent="1" vertex="1">
          <mxGeometry x="660" y="655" width="120" height="80" as="geometry" />
        </mxCell>
        <mxCell id="7a84cebc1def654-36" style="edgeStyle=orthogonalEdgeStyle;rounded=0;html=1;jettySize=auto;orthogonalLoop=1;" parent="1" source="7a84cebc1def654-1" target="7a84cebc1def654-2" edge="1">
          <mxGeometry relative="1" as="geometry" />
        </mxCell>
        <mxCell id="7a84cebc1def654-39" style="edgeStyle=orthogonalEdgeStyle;rounded=0;html=1;jettySize=auto;orthogonalLoop=1;" parent="1" source="7a84cebc1def654-2" target="7a84cebc1def654-3" edge="1">
          <mxGeometry relative="1" as="geometry" />
        </mxCell>
        <mxCell id="7a84cebc1def654-47" style="edgeStyle=orthogonalEdgeStyle;rounded=0;html=1;jettySize=auto;orthogonalLoop=1;" parent="1" source="7a84cebc1def654-3" target="7a84cebc1def654-8" edge="1">
          <mxGeometry relative="1" as="geometry">
            <mxPoint x="450" y="465" as="targetPoint" />
          </mxGeometry>
        </mxCell>
        <mxCell id="7a84cebc1def654-49" style="edgeStyle=orthogonalEdgeStyle;rounded=0;html=1;jettySize=auto;orthogonalLoop=1;entryX=0.5;entryY=0;entryDx=0;entryDy=0;" parent="1" source="7a84cebc1def654-8" target="7a84cebc1def654-29" edge="1">
          <mxGeometry relative="1" as="geometry">
            <mxPoint x="720" y="490" as="targetPoint" />
          </mxGeometry>
        </mxCell>
        <mxCell id="QI6UpnfP2ZppFOtznfu5-4" value="" style="rounded=0;whiteSpace=wrap;html=1;fillColor=none;" vertex="1" parent="1">
          <mxGeometry x="110" y="200" width="60" height="200" as="geometry" />
        </mxCell>
        <mxCell id="QI6UpnfP2ZppFOtznfu5-8" value="" style="rounded=0;whiteSpace=wrap;html=1;fillColor=none;" vertex="1" parent="1">
          <mxGeometry x="110" y="600" width="60" height="200" as="geometry" />
        </mxCell>
        <mxCell id="QI6UpnfP2ZppFOtznfu5-9" value="" style="rounded=0;whiteSpace=wrap;html=1;fillColor=none;" vertex="1" parent="1">
          <mxGeometry x="110" y="400" width="60" height="200" as="geometry" />
        </mxCell>
        <mxCell id="QI6UpnfP2ZppFOtznfu5-11" value="&lt;font style=&quot;font-size: 24px;&quot;&gt;Paciente&lt;/font&gt;" style="text;html=1;strokeColor=none;fillColor=none;align=center;verticalAlign=middle;whiteSpace=wrap;rounded=0;rotation=-90;" vertex="1" parent="1">
          <mxGeometry x="110" y="285" width="60" height="30" as="geometry" />
        </mxCell>
        <mxCell id="QI6UpnfP2ZppFOtznfu5-13" value="" style="rounded=0;whiteSpace=wrap;html=1;fillColor=#FFFFFF;" vertex="1" parent="1">
          <mxGeometry y="200" width="110" height="800" as="geometry" />
        </mxCell>
        <mxCell id="QI6UpnfP2ZppFOtznfu5-14" value="&lt;font style=&quot;font-size: 24px;&quot;&gt;Processo de Atendimento&lt;/font&gt;" style="text;html=1;strokeColor=none;fillColor=none;align=center;verticalAlign=middle;whiteSpace=wrap;rounded=0;rotation=-90;" vertex="1" parent="1">
          <mxGeometry x="-335.62" y="586.87" width="791.25" height="30" as="geometry" />
        </mxCell>
        <mxCell id="QI6UpnfP2ZppFOtznfu5-15" value="&lt;span style=&quot;font-size: 24px;&quot;&gt;Triagem&lt;/span&gt;" style="text;html=1;strokeColor=none;fillColor=none;align=center;verticalAlign=middle;whiteSpace=wrap;rounded=0;rotation=-90;" vertex="1" parent="1">
          <mxGeometry x="110" y="482.5" width="60" height="30" as="geometry" />
        </mxCell>
        <mxCell id="QI6UpnfP2ZppFOtznfu5-16" value="&lt;span style=&quot;font-size: 24px;&quot;&gt;Medico&lt;br&gt;&lt;/span&gt;" style="text;html=1;strokeColor=none;fillColor=none;align=center;verticalAlign=middle;whiteSpace=wrap;rounded=0;rotation=-90;" vertex="1" parent="1">
          <mxGeometry x="110" y="670" width="60" height="30" as="geometry" />
        </mxCell>
        <mxCell id="QI6UpnfP2ZppFOtznfu5-23" value="" style="edgeStyle=orthogonalEdgeStyle;rounded=0;orthogonalLoop=1;jettySize=auto;html=1;" edge="1" parent="1" source="QI6UpnfP2ZppFOtznfu5-19" target="QI6UpnfP2ZppFOtznfu5-22">
          <mxGeometry relative="1" as="geometry" />
        </mxCell>
        <mxCell id="QI6UpnfP2ZppFOtznfu5-25" value="" style="edgeStyle=orthogonalEdgeStyle;rounded=0;orthogonalLoop=1;jettySize=auto;html=1;entryX=0;entryY=0.5;entryDx=0;entryDy=0;exitX=0.5;exitY=0;exitDx=0;exitDy=0;" edge="1" parent="1" source="QI6UpnfP2ZppFOtznfu5-19" target="QI6UpnfP2ZppFOtznfu5-24">
          <mxGeometry relative="1" as="geometry" />
        </mxCell>
        <mxCell id="QI6UpnfP2ZppFOtznfu5-19" value="Realizar Exame" style="rhombus;whiteSpace=wrap;html=1;rounded=1;" vertex="1" parent="1">
          <mxGeometry x="825" y="655" width="80" height="80" as="geometry" />
        </mxCell>
        <mxCell id="QI6UpnfP2ZppFOtznfu5-33" value="" style="edgeStyle=orthogonalEdgeStyle;rounded=0;orthogonalLoop=1;jettySize=auto;html=1;" edge="1" parent="1" source="QI6UpnfP2ZppFOtznfu5-22" target="QI6UpnfP2ZppFOtznfu5-32">
          <mxGeometry relative="1" as="geometry" />
        </mxCell>
        <mxCell id="QI6UpnfP2ZppFOtznfu5-22" value="Passar no Especialista" style="whiteSpace=wrap;html=1;rounded=1;" vertex="1" parent="1">
          <mxGeometry x="980" y="665.87" width="120" height="60" as="geometry" />
        </mxCell>
        <mxCell id="QI6UpnfP2ZppFOtznfu5-39" style="edgeStyle=orthogonalEdgeStyle;rounded=0;orthogonalLoop=1;jettySize=auto;html=1;" edge="1" parent="1" source="QI6UpnfP2ZppFOtznfu5-24" target="7a84cebc1def654-26">
          <mxGeometry relative="1" as="geometry" />
        </mxCell>
        <mxCell id="QI6UpnfP2ZppFOtznfu5-24" value="Atendimento Realizado" style="whiteSpace=wrap;html=1;rounded=1;" vertex="1" parent="1">
          <mxGeometry x="1183" y="246" width="120" height="60" as="geometry" />
        </mxCell>
        <mxCell id="QI6UpnfP2ZppFOtznfu5-26" value="Nao" style="text;html=1;strokeColor=none;fillColor=none;align=center;verticalAlign=middle;whiteSpace=wrap;rounded=0;" vertex="1" parent="1">
          <mxGeometry x="865" y="616.87" width="60" height="30" as="geometry" />
        </mxCell>
        <mxCell id="QI6UpnfP2ZppFOtznfu5-28" value="Sim" style="text;html=1;strokeColor=none;fillColor=none;align=center;verticalAlign=middle;whiteSpace=wrap;rounded=0;" vertex="1" parent="1">
          <mxGeometry x="905" y="665.87" width="60" height="30" as="geometry" />
        </mxCell>
        <mxCell id="QI6UpnfP2ZppFOtznfu5-30" value="" style="rounded=0;whiteSpace=wrap;html=1;fillColor=none;" vertex="1" parent="1">
          <mxGeometry x="110" y="800" width="60" height="200" as="geometry" />
        </mxCell>
        <mxCell id="QI6UpnfP2ZppFOtznfu5-31" value="&lt;span style=&quot;font-size: 24px;&quot;&gt;Especialista&lt;br&gt;&lt;/span&gt;" style="text;html=1;strokeColor=none;fillColor=none;align=center;verticalAlign=middle;whiteSpace=wrap;rounded=0;rotation=-90;" vertex="1" parent="1">
          <mxGeometry x="110" y="870" width="60" height="30" as="geometry" />
        </mxCell>
        <mxCell id="QI6UpnfP2ZppFOtznfu5-41" value="" style="edgeStyle=orthogonalEdgeStyle;rounded=0;orthogonalLoop=1;jettySize=auto;html=1;" edge="1" parent="1" source="QI6UpnfP2ZppFOtznfu5-32" target="QI6UpnfP2ZppFOtznfu5-40">
          <mxGeometry relative="1" as="geometry" />
        </mxCell>
        <mxCell id="QI6UpnfP2ZppFOtznfu5-64" style="edgeStyle=orthogonalEdgeStyle;rounded=0;orthogonalLoop=1;jettySize=auto;html=1;exitX=0.5;exitY=0;exitDx=0;exitDy=0;entryX=0.144;entryY=1.126;entryDx=0;entryDy=0;entryPerimeter=0;" edge="1" parent="1" source="QI6UpnfP2ZppFOtznfu5-32" target="QI6UpnfP2ZppFOtznfu5-24">
          <mxGeometry relative="1" as="geometry" />
        </mxCell>
        <mxCell id="QI6UpnfP2ZppFOtznfu5-32" value="" style="rhombus;whiteSpace=wrap;html=1;rounded=1;" vertex="1" parent="1">
          <mxGeometry x="1160" y="655.87" width="80" height="80" as="geometry" />
        </mxCell>
        <mxCell id="QI6UpnfP2ZppFOtznfu5-45" value="" style="edgeStyle=orthogonalEdgeStyle;rounded=0;orthogonalLoop=1;jettySize=auto;html=1;" edge="1" parent="1" source="QI6UpnfP2ZppFOtznfu5-40" target="QI6UpnfP2ZppFOtznfu5-44">
          <mxGeometry relative="1" as="geometry" />
        </mxCell>
        <mxCell id="QI6UpnfP2ZppFOtznfu5-40" value="Realizar exames adicionais" style="whiteSpace=wrap;html=1;rounded=1;" vertex="1" parent="1">
          <mxGeometry x="1140" y="840" width="120" height="60" as="geometry" />
        </mxCell>
        <mxCell id="QI6UpnfP2ZppFOtznfu5-42" value="sim" style="text;html=1;strokeColor=none;fillColor=none;align=center;verticalAlign=middle;whiteSpace=wrap;rounded=0;" vertex="1" parent="1">
          <mxGeometry x="1140" y="750" width="60" height="30" as="geometry" />
        </mxCell>
        <mxCell id="QI6UpnfP2ZppFOtznfu5-43" value="Nao" style="text;html=1;strokeColor=none;fillColor=none;align=center;verticalAlign=middle;whiteSpace=wrap;rounded=0;" vertex="1" parent="1">
          <mxGeometry x="1140" y="616.87" width="60" height="30" as="geometry" />
        </mxCell>
        <mxCell id="QI6UpnfP2ZppFOtznfu5-47" value="" style="edgeStyle=orthogonalEdgeStyle;rounded=0;orthogonalLoop=1;jettySize=auto;html=1;entryX=0.5;entryY=1;entryDx=0;entryDy=0;exitX=0.5;exitY=0;exitDx=0;exitDy=0;" edge="1" parent="1" source="QI6UpnfP2ZppFOtznfu5-44" target="QI6UpnfP2ZppFOtznfu5-24">
          <mxGeometry relative="1" as="geometry">
            <mxPoint x="1400.0000000000005" y="375" as="targetPoint" />
            <Array as="points">
              <mxPoint x="1400" y="490" />
              <mxPoint x="1243" y="490" />
            </Array>
          </mxGeometry>
        </mxCell>
        <mxCell id="QI6UpnfP2ZppFOtznfu5-49" value="" style="edgeStyle=orthogonalEdgeStyle;rounded=0;orthogonalLoop=1;jettySize=auto;html=1;" edge="1" parent="1" source="QI6UpnfP2ZppFOtznfu5-44" target="QI6UpnfP2ZppFOtznfu5-48">
          <mxGeometry relative="1" as="geometry" />
        </mxCell>
        <mxCell id="QI6UpnfP2ZppFOtznfu5-44" value="" style="rhombus;whiteSpace=wrap;html=1;rounded=1;" vertex="1" parent="1">
          <mxGeometry x="1360" y="830" width="80" height="80" as="geometry" />
        </mxCell>
        <mxCell id="QI6UpnfP2ZppFOtznfu5-54" value="" style="edgeStyle=orthogonalEdgeStyle;rounded=0;orthogonalLoop=1;jettySize=auto;html=1;" edge="1" parent="1" source="QI6UpnfP2ZppFOtznfu5-48" target="QI6UpnfP2ZppFOtznfu5-53">
          <mxGeometry relative="1" as="geometry" />
        </mxCell>
        <mxCell id="QI6UpnfP2ZppFOtznfu5-48" value="Necessario Tratamento" style="whiteSpace=wrap;html=1;rounded=1;" vertex="1" parent="1">
          <mxGeometry x="1500" y="840" width="120" height="60" as="geometry" />
        </mxCell>
        <mxCell id="QI6UpnfP2ZppFOtznfu5-50" value="Nao" style="text;html=1;strokeColor=none;fillColor=none;align=center;verticalAlign=middle;whiteSpace=wrap;rounded=0;" vertex="1" parent="1">
          <mxGeometry x="1340" y="800" width="60" height="30" as="geometry" />
        </mxCell>
        <mxCell id="QI6UpnfP2ZppFOtznfu5-51" value="sim" style="text;html=1;strokeColor=none;fillColor=none;align=center;verticalAlign=middle;whiteSpace=wrap;rounded=0;" vertex="1" parent="1">
          <mxGeometry x="1430" y="840" width="60" height="30" as="geometry" />
        </mxCell>
        <mxCell id="QI6UpnfP2ZppFOtznfu5-56" value="" style="edgeStyle=orthogonalEdgeStyle;rounded=0;orthogonalLoop=1;jettySize=auto;html=1;" edge="1" parent="1" source="QI6UpnfP2ZppFOtznfu5-53" target="QI6UpnfP2ZppFOtznfu5-55">
          <mxGeometry relative="1" as="geometry" />
        </mxCell>
        <mxCell id="QI6UpnfP2ZppFOtznfu5-59" value="" style="edgeStyle=orthogonalEdgeStyle;rounded=0;orthogonalLoop=1;jettySize=auto;html=1;" edge="1" parent="1" source="QI6UpnfP2ZppFOtznfu5-53" target="QI6UpnfP2ZppFOtznfu5-58">
          <mxGeometry relative="1" as="geometry" />
        </mxCell>
        <mxCell id="QI6UpnfP2ZppFOtznfu5-53" value="" style="rhombus;whiteSpace=wrap;html=1;rounded=1;" vertex="1" parent="1">
          <mxGeometry x="1660" y="830" width="80" height="80" as="geometry" />
        </mxCell>
        <mxCell id="QI6UpnfP2ZppFOtznfu5-65" style="edgeStyle=orthogonalEdgeStyle;rounded=0;orthogonalLoop=1;jettySize=auto;html=1;entryX=0.5;entryY=1;entryDx=0;entryDy=0;exitX=0.5;exitY=0;exitDx=0;exitDy=0;" edge="1" parent="1" source="QI6UpnfP2ZppFOtznfu5-55" target="QI6UpnfP2ZppFOtznfu5-24">
          <mxGeometry relative="1" as="geometry" />
        </mxCell>
        <mxCell id="QI6UpnfP2ZppFOtznfu5-55" value="Realizar Tratamento" style="whiteSpace=wrap;html=1;rounded=1;" vertex="1" parent="1">
          <mxGeometry x="1640" y="670" width="120" height="60" as="geometry" />
        </mxCell>
        <mxCell id="QI6UpnfP2ZppFOtznfu5-62" value="" style="edgeStyle=orthogonalEdgeStyle;rounded=0;orthogonalLoop=1;jettySize=auto;html=1;" edge="1" parent="1" source="QI6UpnfP2ZppFOtznfu5-58" target="QI6UpnfP2ZppFOtznfu5-61">
          <mxGeometry relative="1" as="geometry" />
        </mxCell>
        <mxCell id="QI6UpnfP2ZppFOtznfu5-58" value="Cirurgia" style="whiteSpace=wrap;html=1;rounded=1;" vertex="1" parent="1">
          <mxGeometry x="1780" y="840" width="120" height="60" as="geometry" />
        </mxCell>
        <mxCell id="QI6UpnfP2ZppFOtznfu5-69" value="" style="edgeStyle=orthogonalEdgeStyle;rounded=0;orthogonalLoop=1;jettySize=auto;html=1;" edge="1" parent="1" source="QI6UpnfP2ZppFOtznfu5-61" target="QI6UpnfP2ZppFOtznfu5-68">
          <mxGeometry relative="1" as="geometry" />
        </mxCell>
        <mxCell id="QI6UpnfP2ZppFOtznfu5-74" value="" style="edgeStyle=orthogonalEdgeStyle;rounded=0;orthogonalLoop=1;jettySize=auto;html=1;" edge="1" parent="1" source="QI6UpnfP2ZppFOtznfu5-61" target="QI6UpnfP2ZppFOtznfu5-73">
          <mxGeometry relative="1" as="geometry" />
        </mxCell>
        <mxCell id="QI6UpnfP2ZppFOtznfu5-61" value="" style="rhombus;whiteSpace=wrap;html=1;rounded=1;" vertex="1" parent="1">
          <mxGeometry x="1960" y="830" width="80" height="80" as="geometry" />
        </mxCell>
        <mxCell id="QI6UpnfP2ZppFOtznfu5-66" value="sim" style="text;html=1;strokeColor=none;fillColor=none;align=center;verticalAlign=middle;whiteSpace=wrap;rounded=0;" vertex="1" parent="1">
          <mxGeometry x="1640" y="800" width="60" height="30" as="geometry" />
        </mxCell>
        <mxCell id="QI6UpnfP2ZppFOtznfu5-67" value="Nao" style="text;html=1;strokeColor=none;fillColor=none;align=center;verticalAlign=middle;whiteSpace=wrap;rounded=0;" vertex="1" parent="1">
          <mxGeometry x="1720" y="840" width="60" height="30" as="geometry" />
        </mxCell>
        <mxCell id="QI6UpnfP2ZppFOtznfu5-70" style="edgeStyle=orthogonalEdgeStyle;rounded=0;orthogonalLoop=1;jettySize=auto;html=1;exitX=0.5;exitY=0;exitDx=0;exitDy=0;entryX=0.5;entryY=1;entryDx=0;entryDy=0;" edge="1" parent="1" source="QI6UpnfP2ZppFOtznfu5-68" target="QI6UpnfP2ZppFOtznfu5-24">
          <mxGeometry relative="1" as="geometry" />
        </mxCell>
        <mxCell id="QI6UpnfP2ZppFOtznfu5-68" value="Realizar Cirurgia" style="whiteSpace=wrap;html=1;rounded=1;" vertex="1" parent="1">
          <mxGeometry x="1940" y="670" width="120" height="60" as="geometry" />
        </mxCell>
        <mxCell id="QI6UpnfP2ZppFOtznfu5-71" value="sim" style="text;html=1;strokeColor=none;fillColor=none;align=center;verticalAlign=middle;whiteSpace=wrap;rounded=0;" vertex="1" parent="1">
          <mxGeometry x="1940" y="800" width="60" height="30" as="geometry" />
        </mxCell>
        <mxCell id="QI6UpnfP2ZppFOtznfu5-72" value="Nao" style="text;html=1;strokeColor=none;fillColor=none;align=center;verticalAlign=middle;whiteSpace=wrap;rounded=0;" vertex="1" parent="1">
          <mxGeometry x="2030" y="840" width="60" height="30" as="geometry" />
        </mxCell>
        <mxCell id="QI6UpnfP2ZppFOtznfu5-75" style="edgeStyle=orthogonalEdgeStyle;rounded=0;orthogonalLoop=1;jettySize=auto;html=1;exitX=1;exitY=0.5;exitDx=0;exitDy=0;" edge="1" parent="1" source="QI6UpnfP2ZppFOtznfu5-73" target="7a84cebc1def654-26">
          <mxGeometry relative="1" as="geometry" />
        </mxCell>
        <mxCell id="QI6UpnfP2ZppFOtznfu5-73" value="Atendimento Realizado" style="whiteSpace=wrap;html=1;rounded=1;" vertex="1" parent="1">
          <mxGeometry x="2100" y="840" width="120" height="60" as="geometry" />
        </mxCell>
      </root>
    </mxGraphModel>
  </diagram>
</mxfile>
